<svg width="21" height="26" viewBox="0 0 21 26" fill="none" xmlns="http://www.w3.org/2000/svg">
<path d="M10.6486 9.35183C9.72696 9.35183 8.29109 8.3414 6.79903 8.3414C4.81523 8.3414 3.00003 9.48276 1.97722 11.1571C-0.0796372 14.519 1.44755 19.4865 3.45383 22.2189C4.4387 23.5494 5.5992 25.0465 7.13903 24.9989C8.61564 24.9394 9.1706 24.0956 10.9633 24.0956C12.7434 24.0956 13.2478 24.9989 14.8129 24.9632C16.4033 24.9394 17.4135 23.6089 18.3843 22.2665C19.5083 20.7218 19.9747 19.2246 20 19.1413C19.9621 19.1294 16.9077 18.0251 16.8698 14.6976C16.8445 11.9176 19.2807 10.5871 19.3945 10.5276C18.0064 8.61517 15.8736 8.40092 15.129 8.35331C13.1846 8.21047 11.5576 9.35183 10.6486 9.35183Z" stroke="#CC9933" stroke-linecap="round" stroke-linejoin="round"/>
<path d="M13.541 1.13398C14.7618 0.706111 15.5604 1.33697 15.3247 2.54305C15.089 3.74912 13.9082 5.0737 12.6873 5.50157C11.4665 5.92944 10.6679 5.29859 10.9036 4.09251C11.1393 2.88643 12.3201 1.56185 13.541 1.13398Z" stroke="#CC9933" stroke-linecap="round" stroke-linejoin="round"/>
</svg>
